<svg width="171" height="53" viewBox="0 0 171 53" fill="none" xmlns="http://www.w3.org/2000/svg">
<g clip-path="url(#clip0_2_13)">
<mask id="mask0_2_13" style="mask-type:luminance" maskUnits="userSpaceOnUse" x="0" y="0" width="171" height="53">
<path d="M171 0H0V53H171V0Z" fill="white"/>
</mask>
<g mask="url(#mask0_2_13)">
<path fill-rule="evenodd" clip-rule="evenodd" d="M7.42574 24.1865H14.0417L16.449 14.5981H17.0775C17.7058 14.5981 18.2324 14.7784 18.5953 15.1214C18.8564 15.381 19.1397 16.0056 19.3033 16.9908L21.0027 24.1865H28.4285L26.9902 17.3515C26.9105 16.9908 26.7291 16.5466 26.446 15.8428C26.1848 15.2182 25.8175 14.8575 25.636 14.5981C25.3749 14.3385 24.8262 14.0746 24.1182 13.7932C25.1094 13.5337 25.9989 13.1686 26.7069 12.808C27.6983 12.1834 28.5878 11.4797 29.3755 10.4944C30.0835 9.50922 30.7119 8.44482 30.973 7.11651C31.42 5.60789 31.42 4.36315 30.973 3.29436C30.5261 2.22557 29.9021 1.52622 28.9108 1.16116C27.9195 0.71693 26.4016 0.536598 24.3572 0.536598H13.4531L7.42574 24.1865ZM32.2653 12.3857C31.5572 15.1391 31.4555 17.4526 32.0041 19.2208C32.5307 21.0901 33.522 22.4183 34.7743 23.2232C36.1109 24.0282 38.0712 24.5515 40.5008 24.5515C42.9082 24.5515 44.9704 24.0105 46.8511 23.0429C48.732 22.0576 50.2498 20.6502 51.5864 18.8601C52.9227 17.0699 53.914 14.8575 54.538 12.0251C55.5293 8.2029 55.3478 5.26921 53.9096 3.23719C52.4713 1.10398 50.064 0.039585 46.4839 0.039585C43.0056 0.039585 39.9698 1.10398 37.4605 3.23719C35.0355 5.5507 33.2344 8.4844 32.2653 12.3857ZM5.9875 28.8135L0 52.437H11.4307C11.8776 52.437 12.9486 52.3579 14.4665 52.0763C15.6215 51.9972 16.5286 51.6322 17.2368 51.2715C18.2281 50.748 19.1175 49.9431 19.9052 48.9579C20.715 47.9727 21.2417 46.9083 21.5028 45.6811C21.9497 44.1725 21.8656 42.9278 21.4232 41.9602C20.9761 40.975 19.9849 40.2712 18.5688 39.9105C19.7238 39.4662 20.631 38.9254 21.339 38.3228C22.3303 37.3375 23.0383 36.1104 23.4012 34.6854C23.8483 32.9963 23.6623 31.668 22.7729 30.5025C21.9631 29.3545 20.5469 28.8135 18.405 28.8135H5.9875ZM149.635 44.6124C149.188 47.005 149.554 48.9535 150.523 50.4621C151.516 52.0499 153.821 52.8549 157.48 52.8549C159.543 52.8549 161.326 52.4942 162.924 51.8696C164.442 51.245 165.778 50.1807 166.848 48.936C167.919 47.6076 168.729 46.2837 169.076 44.7531C169.438 43.4248 169.438 42.2592 169.154 41.296C168.894 40.2316 168.164 39.4267 167.093 38.723C166.022 38.0192 164.141 37.2935 161.366 36.5898C160.295 36.3303 159.666 36.0664 159.406 35.7849C159.144 35.5254 159.144 35.1603 159.144 34.7997C159.224 34.2763 159.592 33.8144 160.136 33.4714C160.583 33.1107 161.207 32.9479 162.017 32.9479C163.008 32.9479 163.614 33.2075 164.079 33.6517C164.525 34.1751 164.605 34.98 164.525 36.0443L170.876 35.6002C171.239 33.2075 170.796 31.3382 169.722 30.1902C168.567 29.0422 166.584 28.5012 163.914 28.5012C161.689 28.5012 159.888 28.7608 158.374 29.4865C156.936 30.1111 155.785 30.916 154.896 32.0596C154.007 33.1239 153.379 34.2718 153.015 35.5167C152.569 37.3859 152.833 38.8945 153.724 40.0424C154.714 41.1905 156.493 42.1756 159.167 42.8794C160.866 43.3237 161.835 43.7635 162.203 44.2077C162.649 44.7312 162.65 45.2721 162.565 45.8966C162.383 46.5212 161.937 47.1415 161.41 47.5857C160.782 48.0298 159.972 48.2894 159.003 48.2894C157.75 48.2894 156.857 47.8451 156.413 46.8599C156.153 46.2353 156.051 45.3513 156.233 44.2869L149.635 44.6124ZM129.366 0.584979L127.848 6.3556H134.544L129.99 24.2085H136.686L141.239 6.3556H147.935L149.453 0.584979H129.366ZM109.257 0.584979L103.27 24.2085H121.396L122.733 18.7986H111.386L112.541 14.1759H122.817L124.069 9.2893H113.793L114.785 5.5683H125.95L127.202 0.501411H109.24L109.257 0.584979ZM84.3339 0.584979L78.3464 24.2085H84.9623L86.4803 18.4379L90.8481 14.5365L92.9103 24.2085H101.044L96.6762 9.46963L106.77 0.584979H97.9286L88.7239 9.55319L90.9499 0.584979H84.3339ZM71.7527 14.5145C71.0445 16.0231 70.3144 17.0876 69.4249 17.9716C68.6151 18.7765 67.5442 19.1195 66.2873 19.1195C64.9508 19.1195 64.0613 18.6753 63.6188 17.6902C63.1719 16.7049 63.256 14.9368 63.8799 12.2802C64.4066 10.147 65.1323 8.64274 65.9422 7.57394C67.0971 6.24564 68.4513 5.52431 69.9693 5.52431C70.5976 5.52431 71.1242 5.70465 71.6685 5.96855C72.1156 6.22804 72.4783 6.67228 72.6598 7.29685C72.8412 7.55635 72.9209 8.10174 72.9209 8.80547L79.1695 7.37602C79.0898 4.88216 78.3597 3.03486 77.1073 1.86489C75.8594 0.624564 73.8945 0 71.226 0C67.7478 0 64.7916 1.0644 62.3842 3.11842C59.9768 5.25162 58.1757 8.26448 57.2862 12.1658C56.4763 15.0996 56.4763 17.4922 57.0251 19.3614C57.6535 21.2308 58.5429 22.5591 59.7953 23.364C61.1318 24.1688 62.9329 24.512 65.2385 24.512C67.1193 24.512 68.8187 24.2524 70.2347 23.5267C71.5712 22.9021 72.9033 22.0181 74.0803 20.7734C75.2354 19.6254 76.2266 18.1211 77.0321 16.3311L71.7527 14.5145ZM128.03 44.6124C127.583 47.005 127.95 48.9535 128.919 50.4621C129.911 52.0499 132.216 52.8549 135.876 52.8549C137.939 52.8549 139.722 52.4942 141.319 51.8696C142.837 51.245 144.173 50.1807 145.244 48.936C146.315 47.6076 147.125 46.2837 147.47 44.7531C147.834 43.4248 147.834 42.2592 147.55 41.296C147.289 40.2316 146.559 39.4267 145.488 38.723C144.416 38.0192 142.537 37.2935 139.863 36.5898C138.708 36.3303 138.084 36.0664 137.802 35.7849C137.54 35.5254 137.54 35.1603 137.54 34.7997C137.721 34.2763 137.987 33.8144 138.532 33.4714C138.978 33.1107 139.602 32.9479 140.411 32.9479C141.403 32.9479 142.01 33.2075 142.474 33.6517C142.921 34.1751 143.018 34.98 142.921 36.0443L149.272 35.6002C149.634 33.2075 149.192 31.3382 148.116 30.1902C146.961 29.0422 144.979 28.5012 142.31 28.5012C140.084 28.5012 138.283 28.7608 136.868 29.4865C135.349 30.1111 134.278 30.916 133.287 32.0596C132.398 33.1239 131.769 34.2718 131.508 35.5167C131.061 37.3859 131.247 38.8945 132.216 40.0424C133.106 41.1905 134.986 42.1756 137.659 42.8794C139.358 43.3237 140.248 43.7635 140.695 44.2077C141.059 44.7312 141.141 45.2721 140.957 45.8966C140.775 46.5212 140.327 47.1415 139.801 47.5857C139.172 48.0298 138.363 48.2894 137.394 48.2894C136.142 48.2894 135.248 47.8451 134.805 46.8599C134.544 46.2353 134.442 45.3513 134.624 44.2869L128.03 44.6124ZM111.585 28.8135L105.598 52.437H123.64L124.976 47.1106H113.546L114.701 42.4043H124.976L126.229 37.619H115.953L116.944 33.7969H128.11L129.362 28.7299H111.581V28.8135H111.585ZM86.7635 28.8135L80.7759 52.437H86.9448L90.2417 39.4707L94.9769 52.437H101.225L107.213 28.8135H100.964L97.6675 41.8633L92.9324 28.8135H86.7635ZM75.3106 28.8135L69.3231 52.437H75.9391L81.9265 28.8135H75.3106ZM48.1655 44.6124C47.7185 47.005 48.0859 48.9535 49.055 50.4621C50.0463 52.0499 52.3519 52.8549 56.0117 52.8549C58.0739 52.8549 59.8573 52.4942 61.4548 51.8696C62.9728 51.245 64.3092 50.1807 65.3801 48.936C66.4511 47.6076 67.2609 46.2837 67.6061 44.7531C67.969 43.4248 67.969 42.2592 67.6857 41.296C67.4246 40.2316 66.6945 39.4267 65.6236 38.723C64.5526 38.0192 62.6718 37.2935 59.9989 36.5898C58.8439 36.3303 58.2199 36.0664 57.9367 35.7849C57.6756 35.5254 57.6756 35.1603 57.6756 34.7997C57.7552 34.2763 58.1226 33.8144 58.6668 33.4714C59.1139 33.1107 59.7378 32.9479 60.5477 32.9479C61.539 32.9479 62.1452 33.2075 62.6099 33.6517C63.0568 34.1751 63.1365 34.98 63.0568 36.0443L69.4073 35.6002C69.77 33.2075 69.3276 31.3382 68.2522 30.1902C67.1813 29.0422 65.1146 28.5012 62.4461 28.5012C60.2202 28.5012 58.419 28.7608 57.003 29.4865C55.485 30.1111 54.4141 30.916 53.4228 32.0596C52.5334 33.1239 51.9049 34.2718 51.6439 35.5167C51.1969 37.3859 51.3828 38.8945 52.2723 40.0424C53.2635 41.1905 55.0425 42.1756 57.7155 42.8794C59.4148 43.3237 60.3839 43.7635 60.8531 44.2077C61.2158 44.7312 61.3 45.2721 61.114 45.8966C60.9327 46.5212 60.4857 47.1415 59.9591 47.5857C59.3306 48.0298 58.5208 48.2894 57.5517 48.2894C56.2993 48.2894 55.4054 47.8451 54.9629 46.8599C54.7018 46.2353 54.6 45.3513 54.7815 44.2869L48.1655 44.6124ZM42.4391 28.8135L38.7794 43.1873C38.4165 44.5157 37.8898 45.58 37.08 46.3057C36.2702 47.0095 35.1993 47.3702 34.1283 47.3702C32.9733 47.3702 32.1678 47.0095 31.7209 46.2221C31.274 45.5184 31.1766 44.5332 31.4598 43.2049L35.1196 28.8312H28.5037L24.9235 42.9454C24.6625 44.0934 24.4766 45.4392 24.4766 46.9479C24.4766 47.9331 24.7377 48.8172 25.1846 49.7012C25.6317 50.5854 26.2556 51.2891 26.884 51.7508C27.5921 52.1951 28.5833 52.5558 29.7384 52.7361C30.8933 52.9164 32.066 52.9957 33.0353 52.9957C34.916 52.9957 36.5135 52.7361 37.9518 52.1907C38.9431 51.7465 40.014 51.1264 41.0894 50.2422C42.1603 49.257 43.0498 48.1926 43.7578 46.9655C44.466 45.7208 45.0102 44.3924 45.3554 42.963L48.9356 28.8487H42.4391V28.8135ZM17.6173 10.0722L18.8697 5.2868H21.8214C22.9764 5.2868 23.7819 5.54631 24.0473 5.91138C24.4102 6.3556 24.4943 6.8966 24.3085 7.60034C24.2288 8.14133 23.9456 8.58556 23.4987 9.0298C23.1358 9.39046 22.6887 9.65436 22.2463 9.73353C21.255 9.99303 20.7283 9.99303 20.3654 9.99303H17.5952L17.6173 10.0722ZM38.8812 12.3857C39.5095 9.99303 40.3194 8.2029 41.3903 7.23966C42.4612 6.17527 43.7181 5.65187 45.0501 5.65187C46.3821 5.65187 47.4575 6.19286 48.0017 7.1605C48.5284 8.22489 48.5284 9.81269 48.0017 12.047C47.2937 14.6201 46.4839 16.4894 45.413 17.457C44.4217 18.5215 43.187 18.9657 41.7532 18.9657C40.4167 18.9657 39.4254 18.4422 38.8988 17.457C38.2527 16.4674 38.3324 14.7784 38.8812 12.3857ZM7.97005 47.3702L9.12508 42.5847H12.5237C13.6788 42.5847 14.4046 42.8442 14.7497 43.2093C15.1126 43.6535 15.1966 44.1945 15.0108 44.8982C14.8294 45.602 14.4665 46.2266 13.8558 46.6664C13.2274 47.1106 12.4175 47.2909 11.2669 47.2909H7.97005V47.3702ZM10.2757 38.0412L11.4307 33.5989H14.3825C15.3737 33.5989 16.0817 33.7792 16.3428 34.2235C16.604 34.5841 16.7057 35.1076 16.5243 35.8113C16.3428 36.515 15.9799 37.1395 15.533 37.5002C14.9887 37.9445 14.1965 38.1248 13.2052 38.1248H10.2535L10.2757 38.0412Z" fill="#363535"/>
</g>
</g>
<defs>
<clipPath id="clip0_2_13">
<rect width="171" height="53" fill="white"/>
</clipPath>
</defs>
</svg>
