<svg width="15" height="15" viewBox="0 0 15 15" fill="none" xmlns="http://www.w3.org/2000/svg">
<g clip-path="url(#clip0_15_272)">
<path fill-rule="evenodd" clip-rule="evenodd" d="M5.15625 3.21429C5.15625 2.82 5.49224 2.5 5.90624 2.5C6.32024 2.5 6.65625 2.82 6.65625 3.21429C6.65625 3.60858 6.32024 3.92858 5.90624 3.92858C5.49224 3.92858 5.15625 3.60858 5.15625 3.21429ZM13.5 12.5C13.5 12.8943 13.164 13.2143 12.75 13.2143H12V10.3571C12 9.56786 11.3288 8.92858 10.5 8.92858H4.49999C3.67124 8.92858 3.00001 9.56786 3.00001 10.3571V13.2143H2.25C1.836 13.2143 1.5 12.8943 1.5 12.5V5.38858C1.5 5.29358 1.53975 5.20287 1.6095 5.13644L3.00001 3.81215V4.64286C3.00001 5.43215 3.67124 6.07143 4.49999 6.07143H10.5C11.3288 6.07143 12 5.43215 12 4.64286V1.78572H12.75C13.164 1.78572 13.5 2.10572 13.5 2.5V12.5ZM10.5 13.2143H4.49999V11.0714C4.49999 10.6771 4.836 10.3571 5.25 10.3571H9.75C10.164 10.3571 10.5 10.6771 10.5 11.0714V13.2143ZM4.49999 2.38358L5.12776 1.78572H10.5V3.92858C10.5 4.32286 10.164 4.64286 9.75 4.64286H5.25C4.836 4.64286 4.49999 4.32286 4.49999 3.92858V2.38358ZM13.5 0.357147H4.81051C4.61176 0.357147 4.42124 0.432147 4.28024 0.566432L0.219748 4.43358C0.0787484 4.56786 0 4.74929 0 4.93858V13.2143C0 14.0036 0.671254 14.6429 1.5 14.6429H13.5C14.3287 14.6429 15 14.0036 15 13.2143V1.78572C15 0.996433 14.3287 0.357147 13.5 0.357147Z" fill="white"/>
</g>
<defs>
<clipPath id="clip0_15_272">
<rect width="15" height="15" fill="white"/>
</clipPath>
</defs>
</svg>
